<?xml version="1.0" encoding="utf-8"?>
<!-- Generator: Adobe Illustrator 25.2.0, SVG Export Plug-In . SVG Version: 6.00 Build 0)  -->
<svg version="1.1" id="Layer_1" xmlns="http://www.w3.org/2000/svg" xmlns:xlink="http://www.w3.org/1999/xlink" x="0px" y="0px"
	 viewBox="0 0 24 24" style="enable-background:new 0 0 24 24;" xml:space="preserve">
<style type="text/css">
	.st0{fill:none;}
	.st1{fill:#C4C4C4;}
	.st2{fill:#FBFBFB;}
</style>
<rect x="-962" y="-2236" class="st0" width="1024" height="2788"/>
<path class="st1" d="M3,0.5h18c1.4,0,2.5,1.1,2.5,2.5v18c0,1.4-1.1,2.5-2.5,2.5H3c-1.4,0-2.5-1.1-2.5-2.5V3C0.5,1.6,1.6,0.5,3,0.5z"
	/>
<path class="st2" d="M21,24H3c-1.7,0-3-1.3-3-3V3c0-1.7,1.3-3,3-3h18c1.7,0,3,1.3,3,3v18C24,22.7,22.7,24,21,24z M3,1
	C1.9,1,1,1.9,1,3v18c0,1.1,0.9,2,2,2h18c1.1,0,2-0.9,2-2V3c0-1.1-0.9-2-2-2H3z"/>
<path d="M19.2,13.2c-2-1.9-4.1-3.8-6.1-5.8c-0.5-0.5-0.8-0.7-1.1-0.7c-0.3,0-0.7,0.2-1.1,0.7c-2,1.9-4.1,3.8-6.1,5.8
	c-0.6,0.6-1.1,1.2-1.3,1.9v2.2c0,0,0,0,0,0C6.4,14.6,9.1,12,12,9.2c2.9,2.8,5.6,5.4,8.5,8.1c0,0,0,0,0,0V15
	C20.3,14.3,19.9,13.8,19.2,13.2z"/>
</svg>
